<svg width="22" height="25" viewBox="0 0 22 25" fill="none" xmlns="http://www.w3.org/2000/svg">
<g clip-path="url(#clip0_16_404)">
<path d="M5.0158 15.4123L4.28544 18.561L1.616 18.6262C0.818231 16.9174 0.365723 14.9623 0.365723 12.8847C0.365723 10.8757 0.788807 8.98117 1.53875 7.31299H1.53933L3.91588 7.81615L4.95695 10.5442C4.73906 11.2778 4.62029 12.0653 4.62029 12.8847C4.62038 13.7741 4.75987 14.6262 5.0158 15.4123Z" fill="#FBBB00"/>
<path d="M21.1645 10.6213C21.285 11.3542 21.3478 12.1111 21.3478 12.8846C21.3478 13.752 21.2688 14.5981 21.1184 15.4143C20.6077 18.1915 19.2732 20.6165 17.4247 22.3327L17.4241 22.332L14.4307 22.1556L14.007 19.1014C15.2337 18.2707 16.1923 16.9706 16.6972 15.4143H11.0874V10.6213H16.7791H21.1645Z" fill="#518EF8"/>
<path d="M17.4243 22.3318L17.4248 22.3325C15.627 24.0013 13.3431 24.9999 10.857 24.9999C6.86173 24.9999 3.38817 22.421 1.61621 18.626L5.01601 15.4121C5.90197 18.1427 8.18291 20.0865 10.857 20.0865C12.0064 20.0865 13.0832 19.7277 14.0072 19.1013L17.4243 22.3318Z" fill="#28B446"/>
<path d="M17.5535 3.55848L14.1548 6.7717C13.1986 6.08141 12.0681 5.68264 10.8571 5.68264C8.12248 5.68264 5.79888 7.71562 4.9573 10.5441L1.53964 7.31292H1.53906C3.28508 3.42535 6.80245 0.769287 10.8571 0.769287C13.4026 0.769287 15.7366 1.81642 17.5535 3.55848Z" fill="#F14336"/>
</g>
<defs>
<clipPath id="clip0_16_404">
<rect width="20.9821" height="24.2308" fill="white" transform="translate(0.365723 0.769287)"/>
</clipPath>
</defs>
</svg>
